<?xml version="1.0" standalone="no"?>
<!DOCTYPE svg PUBLIC "-//W3C//DTD SVG 1.1//EN" "http://www.w3.org/Graphics/SVG/1.1/DTD/svg11.dtd" >
<svg xmlns="http://www.w3.org/2000/svg">
<metadata>
Created by FontForge 20120731 at Wed Apr 19 18:19:40 2017
 By admin
</metadata>
<defs>
<font id="iconfont" horiz-adv-x="1024" >
  <font-face 
    font-family="iconfont"
    font-weight="500"
    font-stretch="normal"
    units-per-em="1024"
    panose-1="2 0 6 3 0 0 0 0 0 0"
    ascent="896"
    descent="-128"
    x-height="792"
    bbox="28 -117 981.963 864"
    underline-thickness="0"
    underline-position="0"
    unicode-range="U+0078-E657"
  />
<missing-glyph 
 />
    <glyph glyph-name=".notdef" 
 />
    <glyph glyph-name=".notdef" 
 />
    <glyph glyph-name=".null" horiz-adv-x="0" 
 />
    <glyph glyph-name="nonmarkingreturn" horiz-adv-x="341" 
 />
    <glyph glyph-name="x" unicode="x" horiz-adv-x="1001" 
d="M281 543q-27 -1 -53 -1h-83q-18 0 -36.5 -6t-32.5 -18.5t-23 -32t-9 -45.5v-76h912v41q0 16 -0.5 30t-0.5 18q0 13 -5 29t-17 29.5t-31.5 22.5t-49.5 9h-133v-97h-438v97zM955 310v-52q0 -23 0.5 -52t0.5 -58t-10.5 -47.5t-26 -30t-33 -16t-31.5 -4.5q-14 -1 -29.5 -0.5
t-29.5 0.5h-32l-45 128h-439l-44 -128h-29h-34q-20 0 -45 1q-25 0 -41 9.5t-25.5 23t-13.5 29.5t-4 30v167h911zM163 247q-12 0 -21 -8.5t-9 -21.5t9 -21.5t21 -8.5q13 0 22 8.5t9 21.5t-9 21.5t-22 8.5zM316 123q-8 -26 -14 -48q-5 -19 -10.5 -37t-7.5 -25t-3 -15t1 -14.5
t9.5 -10.5t21.5 -4h37h67h81h80h64h36q23 0 34 12t2 38q-5 13 -9.5 30.5t-9.5 34.5q-5 19 -11 39h-368zM336 498v228q0 11 2.5 23t10 21.5t20.5 15.5t34 6h188q31 0 51.5 -14.5t20.5 -52.5v-227h-327z" />
    <glyph glyph-name="nan" unicode="&#xe633;" 
d="M969 826q0 2 -3 4q0 2 -2 4q0 1 -1 2t-1 2t-1 2.5t-1 2.5q-3 6 -13 12l-2 3q-1 0 -2 1t-2 1q-2 0 -4 2q-3 0 -5 2h-222q-17 0 -29.5 -12.5t-12.5 -30t12.5 -30t29.5 -12.5h111l-207 -207q-99 79 -224 79q-98 0 -181.5 -48.5t-132 -132t-48.5 -182.5t48.5 -182.5t132 -132
t182 -48.5t182 48.5t132 132t48.5 182.5q0 124 -79 224l207 207v-111q0 -18 12.5 -30.5t30 -12.5t30 12.5t12.5 30.5v213q3 -1 3.5 1t-0.5 4zM394.5 6q-115.5 0 -196.5 81.5t-81 196.5t81 196t196.5 81t196.5 -81t81 -196t-81 -196.5t-196.5 -81.5z" />
    <glyph glyph-name="lishi" unicode="&#xe634;" 
d="M512 860q-95 0 -182 -37.5t-150 -100.5t-100 -150t-37 -182t37 -181.5t100 -149.5t150 -100.5t182 -37.5t182 37.5t150 100.5t100 149.5t37 181.5t-37 182t-100 150t-150 100.5t-182 37.5zM512 6q-104 0 -192.5 52t-140 140.5t-51.5 192t51.5 192t140 140t192.5 51.5
t192.5 -51.5t140 -140t51.5 -192t-51.5 -192t-140 -140.5t-192.5 -52zM661 433h-106v256q0 18 -12.5 30.5t-30.5 12.5t-30.5 -12.5t-12.5 -30.5v-299q0 -17 12.5 -29.5t30.5 -12.5h149q18 0 30.5 12.5t12.5 30t-12.5 30t-30.5 12.5z" />
    <glyph glyph-name="houtui" unicode="&#xe635;" 
d="M640 -85q-17 0 -30 12l-427 427q-12 13 -12 30t12 30l427 427q13 12 30 12t30 -12.5t13 -29.5t-13 -30l-397 -397l397 -397q13 -13 13 -30t-13 -29.5t-30 -12.5z" />
    <glyph glyph-name="caiyicai" unicode="&#xe636;" 
d="M512 853q-99 0 -182.5 -48.5t-132 -132t-48.5 -181.5q0 -101 52 -187.5t140 -132.5v-75q0 -40 28 -68t68 -28h-53q-18 0 -30.5 -12.5t-12.5 -30t12.5 -30t30.5 -12.5h256q18 0 30.5 12.5t12.5 30t-12.5 30t-30.5 12.5h-53q40 0 68 28t28 68v75q88 46 140 132.5t52 187.5
q0 98 -48.5 181.5t-132 132t-182.5 48.5zM587 85h-152q-10 0 -10 11v47h170v-47q2 -5 -0.5 -8t-7.5 -3zM623 237q-9 -4 -13 -9h-196q-4 5 -13 9q-76 34 -121 102.5t-45 151.5q0 115 81 196t196 81t196 -81t81 -196q0 -83 -45 -151.5t-121 -102.5zM633.5 529
q-17.5 0 -30 -12.5t-12.5 -30.5q0 -7 -5 -12t-12 -5t-12 5.5t-5 11.5q0 18 -12.5 30.5t-30 12.5t-30.5 -12.5t-13 -30.5q0 -7 -5 -12t-12 -5t-12 5.5t-5 11.5q0 18 -12.5 30.5t-30 12.5t-30 -12.5t-12.5 -30.5q0 -42 30 -72t72 -30q29 0 60 19q26 -19 60 -19q43 0 72.5 30
t29.5 72q0 18 -12.5 30.5t-30 12.5zM230 800q-12 13 -29.5 13t-29.5 -13q-63 -62 -95.5 -143.5t-30.5 -170.5q0 -17 12.5 -29.5t30 -12.5t30 12.5t12.5 29.5q-1 72 25 137.5t78 114.5q11 14 10.5 32.5t-13.5 29.5zM938.5 538q-17.5 0 -30 -12.5t-12.5 -30.5
q0 -143 -102 -245q-13 -13 -13 -30t12.5 -30t30 -13t29.5 13q61 61 93.5 140t32.5 167q2 16 -10.5 28.5t-30 12.5z" />
    <glyph glyph-name="nv" unicode="&#xe637;" 
d="M802 154l167 166q12 13 12 30t-12.5 30t-29.5 13t-30 -13l-167 -167l-53 54q79 99 79 224q0 98 -48.5 181.5t-132 132t-182 48.5t-182 -48.5t-132 -132t-48.5 -182t48.5 -182t132 -132t181.5 -48.5q125 0 224 79l54 -53l-167 -167q-13 -13 -13 -30t13 -29.5t30 -12.5
t30 12l166 167l167 -167q13 -12 30 -12t29.5 12.5t12.5 29.5t-12 30zM128 490.5q0 115.5 81 196.5t196.5 81t196.5 -81t81 -196.5t-81 -196.5t-196.5 -81t-196.5 81t-81 196.5z" />
    <glyph glyph-name="bangzhu" unicode="&#xe638;" 
d="M512 847q-95 0 -182 -37.5t-150 -100.5t-100 -149.5t-37 -181.5t37 -182t100 -150t150 -100.5t182 -37.5t182 37.5t150 100.5t100 150t37 182t-37 181.5t-100 149.5t-150 100.5t-182 37.5zM512 -6q-104 0 -192.5 51.5t-140 140t-51.5 192t51.5 192t140 140.5t192.5 52
t192.5 -52t140 -140.5t51.5 -192t-51.5 -192t-140 -140t-192.5 -51.5zM512 676q-77 0 -132.5 -54.5t-55.5 -132.5q0 -18 12.5 -30.5t30.5 -12.5t30.5 12.5t12.5 30.5q0 42 29.5 72t72.5 30t72.5 -29.5t29.5 -73t-29.5 -73t-72.5 -29.5q-18 0 -30.5 -12.5t-12.5 -30.5v-68
q0 -17 12.5 -29.5t30.5 -12.5t30.5 12.5t12.5 29.5v32q63 15 104 66t41 118q0 75 -55.5 130t-132.5 55zM512 145zM469 145q0 -18 12.5 -30.5t30.5 -12.5t30.5 12.5t12.5 30.5t-12.5 30.5t-30.5 12.5t-30.5 -12.5t-12.5 -30.5z" />
    <glyph glyph-name="shangyibu" unicode="&#xe639;" 
d="M34 346v0q-3 6 -4 6v2l-2 4v9v8q0 5 2 7v2q0 1 1 3t1 3v3q4 4 4 6l301 301q13 13 30 13t30 -13t13 -30t-13 -30l-228 -228h750q18 0 30.5 -12.5t12.5 -30.5t-12.5 -30.5t-30.5 -12.5h-750l228 -228q13 -13 13 -30t-13 -29.5t-30 -12.5t-30 12l-301 301q2 2 -2 7z" />
    <glyph glyph-name="qianjin" unicode="&#xe63a;" 
d="M284 -85q17 0 30 12l426 427q13 13 13 30t-13 30l-426 427q-13 12 -30 12t-30 -12.5t-13 -29.5t13 -30l397 -397l-397 -397q-13 -13 -13 -30t13 -29.5t30 -12.5z" />
    <glyph glyph-name="shuaxin" unicode="&#xe63b;" 
d="M661 710l152 60q16 7 23 23.5t0.5 32.5t-23 22.5t-32.5 0.5l-286 -113q-1 0 -2 -1t-2 -1q-2 0 -2 -2q-2 0 -3 -1t-2 -1l-2 -3q-2 -2 -2 -4l-2 -2l-2 -4v-2q0 -1 -1 -3.5t-1 -3.5v-19q0 -2 2 -4v-2l106 -269q5 -13 16.5 -20.5t24.5 -7.5q11 0 15 2q16 7 23 23.5t0 32.5
l-81 205q113 -23 188 -113t75 -207q0 -90 -44 -165t-119 -118.5t-164 -43.5t-164 44t-118.5 119t-43.5 164q0 17 -12.5 29.5t-30 12.5t-30 -12.5t-12.5 -29.5q0 -113 55 -207.5t150 -149.5t206 -55q112 0 207 55.5t150 150t55 206.5q-3 128 -76.5 232t-190.5 149z" />
    <glyph glyph-name="tiaoguo" unicode="&#xe63c;" 
d="M51 429q-19 -19 -19 -45q0 -29 19 -45q19 -19 45 -19q29 0 45 19q19 19 19 45q0 29 -19 45q-18 17 -45 17t-45 -17zM265 429q-20 -19 -20 -45q0 -29 20 -45q19 -19 44 -19q29 0 45 19q19 19 19 45q0 29 -19 45q-17 17 -44.5 17t-44.5 -17zM567 429q-17 17 -44.5 17
t-44.5 -17q-19 -19 -19 -45q0 -29 19 -45q19 -19 45 -19q28 0 44 19q20 19 20 45q0 29 -20 45zM958 414l-301 301q-13 12 -30 12t-29.5 -12.5t-12.5 -29.5t12 -30l271 -271l-271 -271q-12 -13 -12 -30t12.5 -29.5t29.5 -12.5t30 12l301 301q13 13 13 30t-13 30z" />
    <glyph glyph-name="wancheng" unicode="&#xe63d;" 
d="M964.5 808.5q-14.5 11.5 -31.5 9t-28 -17.5l-508 -655l-280 320q-11 13 -29 14.5t-30.5 -10t-14 -29.5t9.5 -30l314 -361q15 -15 32 -15h2q22 0 32 17l540 696q11 14 8.5 32t-17 29.5z" />
    <glyph glyph-name="shezhi" unicode="&#xe63e;" 
d="M894 497h-47l-2 2l32 32q25 26 25 62q0 40 -25 62l-68 68q-26 26 -63.5 26t-62.5 -26l-32 -32l-2 2v47q0 37 -26 62.5t-62 25.5h-98q-37 0 -62.5 -26t-25.5 -62v-47l-2 -2l-32 32q-25 26 -62 26q-39 0 -61 -26l-69 -68q-25 -26 -25 -62t25 -62l32 -32l-2 -2h-47
q-36 0 -61.5 -26t-25.5 -61v-99q0 -36 26 -61.5t61 -25.5h47l2 -2l-32 -32q-25 -26 -25 -62t25 -62l69 -68q25 -26 62 -26t61 26l32 32l2 -2v-47q0 -37 26 -62.5t62 -25.5h98q37 0 62.5 26t25.5 62v47l2 2l32 -32q25 -26 62 -26t61 26l69 68q25 26 25 62q0 39 -25 62l-32 32
l2 2h47q36 0 61.5 26t25.5 61v99q2 36 -23.5 61.5t-61.5 25.5zM896 311l-2 -2h-64q-18 0 -34.5 -11t-23.5 -27l-10 -28q-8 -17 -5.5 -36t15.5 -32l45 -47l-70 -70h-5l-44 44q-13 13 -33 16.5t-36 -3.5l-27 -10q-18 -7 -29.5 -23t-11.5 -35v-64l-2 -2h-98l-2 2v64
q0 18 -11.5 34.5t-29.5 23.5l-28 10q-17 8 -36 5t-32 -15l-45 -45h-4l-68 68v2l45 47q12 13 15.5 33t-3.5 35l-10 28q-7 18 -23 29.5t-35 11.5h-64l-2 2v98l2 2h64q18 0 34.5 11.5t23.5 29.5l10 27q8 18 5.5 37t-15.5 32l-45 46l70 71h5l44 -45q13 -12 33 -15.5t36 2.5
l27 11q18 6 29.5 22t11.5 36v64l2 2h98l2 -2v-64q0 -18 11.5 -35t27.5 -23l27 -11q18 -8 37 -5t32 16l45 45h4l68 -69v-2l-45 -47q-12 -12 -15.5 -32t2.5 -36l11 -28q7 -17 23 -28.5t35 -11.5h64l2 -2v-101h2zM512 553q-80 0 -136 -56t-56 -136t56 -136t136 -56t136 56
t56 136t-56 136t-136 56zM512 254q-45 0 -76 31t-31 75.5t31 75.5t76 31t76 -31t31 -75t-31.5 -75.5t-75.5 -31.5z" />
    <glyph glyph-name="xiayibu" unicode="&#xe63f;" 
d="M958 346v0q3 6 4 6v2l2 4v9v8q0 5 -2 7v2q0 1 -1 3t-1 3v3q-4 4 -4 6l-301 301q-13 13 -30 13t-30 -13t-13 -30t13 -30l228 -228h-750q-18 0 -30.5 -12.5t-12.5 -30.5t12.5 -30.5t30.5 -12.5h750l-228 -228q-13 -13 -13 -30t13 -29.5t30 -12.5t30 12l301 301q0 1 1 3.5
t1 3.5z" />
    <glyph glyph-name="yonghu" unicode="&#xe640;" 
d="M674 343q56 40 88 99.5t32 129.5q0 117 -82.5 199t-199.5 82t-199.5 -82t-82.5 -199q0 -70 32.5 -130.5t87.5 -98.5q-114 -48 -185 -153t-71 -233q0 -17 12.5 -29.5t30 -12.5t30 12.5t12.5 29.5q0 91 44.5 167.5t121.5 121t167 44.5t167 -44.5t121.5 -121t44.5 -167.5
q0 -17 12.5 -29.5t30 -12.5t30 12.5t12.5 29.5q0 128 -70.5 233t-185.5 153zM316 571.5q0 81.5 57 139t139 57.5t139 -57.5t57 -139t-57 -139t-139 -57.5t-139 57.5t-57 139z" />
    <glyph glyph-name="home" unicode="&#xe641;" 
d="M939 341q-17 0 -30 13l-397 397l-397 -397q-13 -13 -30 -13t-29.5 13t-12.5 30t12 30l427 427q13 12 30 12t30 -12l427 -427q12 -13 12 -30t-12.5 -30t-29.5 -13zM832 -85h-213q-18 0 -30.5 12.5t-12.5 29.5v278h-128v-278q0 -17 -12.5 -29.5t-30.5 -12.5h-213
q-18 0 -30.5 12.5t-12.5 29.5v299q0 18 12.5 30.5t30.5 12.5t30.5 -12.5t12.5 -30.5v-256h128v277q0 18 12.5 30.5t29.5 12.5h214q17 0 29.5 -12.5t12.5 -30.5v-277h128v256q0 18 12.5 30.5t30.5 12.5t30.5 -12.5t12.5 -30.5v-299q0 -17 -12.5 -29.5t-30.5 -12.5zM874.5 597
q-17.5 0 -30 12.5t-12.5 30.5v85h-85q-18 0 -30.5 12.5t-12.5 30.5t12.5 30.5t30.5 12.5h128q17 0 29.5 -12.5t12.5 -30.5v-128q0 -18 -12.5 -30.5t-30 -12.5z" />
    <glyph glyph-name="lock" unicode="&#xe642;" 
d="M770 469l-2 128q0 106 -75 181t-181 75t-181 -75t-75 -181v-128h-2q-43 0 -74 -30.5t-31 -73.5v-192q0 -89 63.5 -152.5t152.5 -63.5h296q89 0 152.5 63.5t63.5 152.5v192q-2 43 -33 73.5t-74 30.5zM341 597q0 71 50.5 121t120.5 50t120.5 -50t50.5 -121v-128h-342v128z
" />
    <glyph glyph-name="wifi" unicode="&#xe643;" 
d="M85 851q-17 0 -29.5 -12.5t-12.5 -30t12.5 -30t29.5 -12.5q165 0 315.5 -64t259 -172.5t172.5 -259t64 -315.5q0 -17 12.5 -29.5t30 -12.5t30 12.5t12.5 29.5q0 122 -32 237.5t-90 214t-140.5 181.5t-180.5 141t-214.5 90t-238.5 32zM85 638q-17 0 -29.5 -12.5t-12.5 -30
t12.5 -30t29.5 -12.5q121 0 231.5 -47.5t191 -128t128 -191t47.5 -231.5q0 -17 12.5 -29.5t30 -12.5t30 12.5t12.5 29.5q0 138 -54.5 264.5t-146 218t-217.5 146t-265 54.5zM85 425q-17 0 -29.5 -13t-12.5 -30.5t12.5 -30t29.5 -12.5q104 0 192.5 -51.5t140 -140
t51.5 -192.5q0 -17 12.5 -29.5t30.5 -12.5t30.5 12.5t12.5 29.5q0 95 -37.5 182t-100.5 150t-150 100.5t-182 37.5zM192 211q-62 0 -105.5 -43.5t-43.5 -106t43.5 -105.5t105.5 -43t105.5 43t43.5 105.5t-43.5 106t-105.5 43.5z" />
    <glyph glyph-name="xiaoduigou" unicode="&#xe644;" 
d="M463 85q-26 0 -79.5 50t-202.5 217q-17 19 -16 45.5t20.5 44t46 16.5t43.5 -21q71 -80 179 -194q82 109 316 393q16 21 42.5 23.5t47.5 -15t23.5 -43t-15.5 -46.5q-313 -384 -345 -433q-14 -28 -45 -35q-2 0 -7.5 -1t-7.5 -1z" />
    <glyph glyph-name="xiala" unicode="&#xe645;" 
d="M262 489l244 -282l243 282h-487z" />
    <glyph glyph-name="xin" unicode="&#xe646;" 
d="M674 636q-43 8 -87.5 -10t-74.5 -65q-29 45 -71 65t-89 12q-57 -11 -91.5 -61.5t-36.5 -124.5q0 -24 15 -53.5t34.5 -54t53 -57t55 -50.5t55.5 -47q53 -43 56 -49q6 -13 19 -13q6 0 12 4t7 9q8 10 58 51q49 41 81 69.5t64.5 64t48.5 67t15 59.5q1 73 -33 122.5t-91 61.5z
" />
    <glyph glyph-name="xieya" unicode="&#xe647;" 
d="M525 378v332q0 54 -38 92.5t-92 38.5q-55 0 -92.5 -38t-37.5 -93v-221q0 -18 12.5 -30.5t30 -12.5t30 12.5t12.5 30.5v221q0 18 13 31.5t32 13.5q18 0 31 -13t13 -32v-358q0 -27 26 -38q46 -21 74 -63.5t28 -92.5q0 -71 -50 -121t-120.5 -50t-120.5 50t-50 121
q0 51 28 93t75 63q16 6 22.5 22.5t-1.5 32.5q-7 16 -23.5 22.5t-32.5 -1.5q-69 -30 -110 -94t-41 -140q0 -106 75 -181t181 -75t181 75t75 181q-2 68 -36.5 127t-93.5 95zM593 704h273q18 0 30.5 12.5t12.5 30t-12.5 30t-30.5 12.5h-273q-18 0 -30.5 -12.5t-12.5 -30
t12.5 -30t30.5 -12.5zM866 674h-273q-18 0 -30.5 -12.5t-12.5 -30t12.5 -30t30.5 -12.5h273q18 0 30.5 12.5t12.5 30t-12.5 30t-30.5 12.5zM866 559h-273q-18 0 -30.5 -12.5t-12.5 -30t12.5 -30t30.5 -12.5h273q18 0 30.5 12.5t12.5 30t-12.5 30t-30.5 12.5zM866 444h-230
q-18 0 -30.5 -12.5t-12.5 -30.5t12.5 -30.5t30.5 -12.5h230q18 0 30.5 12.5t12.5 30.5t-12.5 30.5t-30.5 12.5zM300.5 224q-17.5 0 -30 -12.5t-12.5 -30.5q0 -70 49 -119t120 -49q17 0 29.5 12.5t12.5 30t-12.5 30t-29.5 12.5q-34 0 -59 24t-25 59q0 18 -12.5 30.5t-30 12.5
z" />
    <glyph glyph-name="bianji" unicode="&#xe64a;" 
d="M874.5 595q-17.5 0 -30 -12.5t-12.5 -29.5v-459q0 -38 -26 -66t-61 -28h-463q-37 0 -62.5 27.5t-25.5 66.5v580q0 38 26 66t62 28h352q17 0 29.5 12.5t12.5 30t-12.5 30t-29.5 12.5h-352q-72 0 -122.5 -52.5t-50.5 -126.5v-580q0 -74 51 -126.5t122 -52.5h463
q71 0 121.5 52.5t50.5 126.5v459q0 17 -12.5 29.5t-30 12.5zM331 267q12 -13 29.5 -13t29.5 13l515 514q12 13 12 30t-12.5 29.5t-29.5 12.5t-30 -12l-514 -515q-15 -11 -15 -29t15 -30z" />
    <glyph glyph-name="wangluoshezhi" unicode="&#xe64b;" 
d="M107 508l76 -77q71 71 163.5 107.5t186 36.5t185.5 -36.5t163 -107.5l77 77q-114 116 -269 157.5t-310.5 0t-271.5 -157.5zM224 393l77 -77q47 47 108.5 71.5t124 24.5t124 -24.5t108.5 -71.5l77 77q-83 83 -196 113t-226 0t-197 -113zM339 275l77 -77q48 48 116.5 48
t116.5 -48l76 77q-78 80 -192 80t-194 -80zM457 160l76 -77l77 77q-30 32 -75.5 32t-77.5 -32z" />
    <glyph glyph-name="bangding" unicode="&#xe64c;" 
d="M512 853q-95 0 -182 -37t-150 -100t-100 -150t-37 -182t37 -182t100 -150t150 -100t182 -37t182 37t150 100t100 150t37 182t-37 182t-99.5 150t-149.5 100t-183 37zM512 0q-104 0 -192.5 51.5t-140 140t-51.5 192.5t51.5 192.5t140 140t192.5 51.5q158 0 271 -113
t113 -271q0 -159 -112 -271.5t-272 -112.5v0zM745 617q-44 43 -104 43t-101 -43l-109 -109q-43 -43 -43 -103t43 -102q13 -13 30 -13t29.5 13t12.5 30t-12 30q-18 17 -18 42t18 43l108 109q18 17 43 17t43 -17q17 -17 17 -42.5t-17 -43.5q-13 -12 -13 -29t13 -30t30 -13
t30 13q42 42 42 102t-42 103zM535.5 469.5q-12.5 -12.5 -12.5 -30t12 -29.5q18 -18 18 -43t-18 -43l-108 -109q-18 -17 -43 -17t-42.5 17.5t-17.5 42.5t17 43q13 13 13 30t-12.5 29.5t-30 12.5t-29.5 -12q-44 -44 -44 -104t44 -101q42 -43 102 -43t102 43l109 109
q43 43 43 103t-43 101q-11 13 -29 13t-30.5 -12.5z" />
    <glyph glyph-name="xindian" unicode="&#xe64d;" 
d="M977 550q-2 104 -76 177t-178 73q-65 0 -121 -30.5t-90 -82.5q-34 52 -90 82.5t-121 30.5q-104 0 -178 -73t-76 -177q-13 -60 15 -140q7 -15 17 -22q-16 -1 -26 -13.5t-10 -28.5q0 -18 12.5 -30.5t29.5 -12.5h69q-9 -11 -8.5 -25.5t10.5 -25.5q114 -140 335 -278
q9 -6 23 -6q11 0 24 6q218 138 335 278q11 13 9.5 29.5t-14.5 27.5q14 3 23.5 14.5t10.5 26.5q0 17 -12.5 30t-29.5 13l-194 4l-47 98q-5 11 -16.5 18t-24.5 5q-27 0 -38 -25l-58 -141l-66 198q-11 30 -40.5 30t-40.5 -30l-49 -162h-156q12 8 17 22.5t0 26.5q-9 26 -12.5 49
t-1.5 33l1 10q3 4 3 13q0 70 49.5 120.5t118.5 50.5t119 -50.5t50 -120.5q0 -18 12.5 -30.5t30 -12.5t30 12.5t12.5 30.5q0 70 49 120.5t119.5 50.5t119.5 -50.5t49 -120.5q0 -9 2 -13q9 -34 -13 -94q-6 -16 2 -32.5t24 -22.5q4 -2 15 -2q13 0 24.5 7.5t15.5 19.5
q24 86 11 145zM314 303q14 0 25.5 8.5t14.5 21.5l19 64l60 -179q10 -27 38 -30h3q26 0 40 25l64 160l17 -36q10 -23 39 -23l172 -3l-4 -4q-100 -123 -290 -245q-189 121 -288 243h90v-2z" />
    <glyph glyph-name="shengyin" unicode="&#xe64e;" 
d="M725 785q-31 0 -55.5 -21t-29.5 -51q-24 -69 -72 -96.5t-143 -27.5q-18 0 -30.5 -12.5t-12.5 -30t12.5 -30.5t30.5 -13q39 0 70 3.5t66 14t62 28.5t52 49t42 74q8 13 8 23q2 1 5 0v-674h-5q0 15 -8 24q-17 43 -41.5 74t-51.5 49t-62 28.5t-66.5 13.5t-70.5 3
q-18 0 -30.5 -12.5t-12.5 -30t12.5 -30t30.5 -12.5q95 0 143 -27.5t72 -96.5q5 -30 29.5 -51t55.5 -21q37 0 62.5 25t25.5 62v674q0 40 -25.5 66t-62.5 26zM299 591h-162q-44 0 -75.5 -31t-31.5 -76v-247q0 -44 31 -75.5t76 -31.5h162q17 0 29.5 12.5t12.5 30.5v373
q0 19 -12.5 32t-29.5 13zM256 218h-119q-9 0 -15.5 6t-6.5 15v247q0 9 6 15.5t16 6.5h119v-290zM860 585q14 0 23 6l68 45q15 9 19 27t-5.5 32.5t-27.5 18.5t-32 -6l-69 -45q-14 -9 -18 -27t5 -32q16 -19 37 -19zM951 92l-68 45q-14 9 -32 5.5t-28 -18.5q-9 -14 -5.5 -32.5
t18.5 -27.5l69 -45q9 -6 23 -6q23 0 36 19q10 14 6 32t-19 28zM860 320h68q18 0 30.5 12.5t12.5 30t-12.5 30t-30.5 12.5h-68q-18 0 -30.5 -12.5t-12.5 -30t12.5 -30t30.5 -12.5z" />
    <glyph glyph-name="rili" unicode="&#xe64f;" 
d="M381.5 617q17.5 0 30.5 12.5t13 29.5v152q0 17 -13 29.5t-30.5 12.5t-30 -12.5t-12.5 -29.5v-152q0 -17 12.5 -29.5t30 -12.5zM637.5 617q17.5 0 30.5 12.5t13 29.5v152q0 17 -13 29.5t-30.5 12.5t-30 -12.5t-12.5 -29.5v-152q0 -17 12.5 -29.5t30 -12.5zM489 683h42
q18 0 30.5 12.5t12.5 30t-12.5 30t-30.5 12.5h-42q-18 0 -30.5 -12.5t-12.5 -30t12.5 -30t30.5 -12.5zM791 768h-49q-17 0 -29.5 -12.5t-12.5 -30t12.5 -30t29.5 -12.5h49q33 0 56.5 -24.5t25.5 -59.5h-726q2 36 25 60t56 24h47q18 0 30.5 12.5t12.5 30t-12.5 30t-30.5 12.5
h-47q-68 0 -117 -50t-49 -121v-510q0 -70 49 -120t117 -50h566q68 0 117 50t49 120v512q-2 70 -51 119.5t-118 49.5zM873 85q0 -35 -24 -60t-58 -25h-565q-33 0 -57 25t-24 60v429h725v-429h3zM297 160zM233 160q0 -26 18.5 -45t45 -19t45.5 19t19 45t-19 45t-45.5 19
t-45 -19t-18.5 -45zM510 160zM446 160q0 -26 18.5 -45t45 -19t45.5 19t19 45t-19 45t-45.5 19t-45 -19t-18.5 -45zM723 160zM659 160q0 -26 19 -45t45.5 -19t45 19t18.5 45t-18.5 45t-45 19t-45.5 -19t-19 -45zM510 373zM446 373.5q0 -26.5 18.5 -45.5t45 -19t45.5 19
t19 45.5t-19 45t-45.5 18.5t-45 -18.5t-18.5 -45zM723 373zM659 373.5q0 -26.5 19 -45.5t45.5 -19t45 19t18.5 45.5t-18.5 45t-45 18.5t-45.5 -18.5t-19 -45z" />
    <glyph glyph-name="yuandian" unicode="&#xe650;" 
d="M311 384q0 -88 59 -150.5t142 -62.5t142 62.5t59 150.5t-59 150.5t-142 62.5t-142 -62.5t-59 -150.5z" />
    <glyph glyph-name="xieyang" unicode="&#xe651;" 
d="M924 2h-24q60 41 60 105q0 41 -28.5 68.5t-71.5 27.5t-75 -32q-3 55 -15 89q4 -2 15 -2q18 0 30.5 12.5t12.5 30.5q0 56 -19.5 116t-49 110.5t-68.5 100.5t-74 86t-70.5 68t-52.5 45.5t-25 19.5q-11 8 -25.5 8t-25.5 -8q-8 -6 -25 -19.5t-52.5 -45.5t-70 -68t-74 -86
t-69 -100.5t-48.5 -110.5t-19 -116q0 -104 51.5 -192.5t140 -140t192.5 -51.5q17 0 29.5 12.5t12.5 30t-12.5 30t-29.5 12.5q-123 0 -211 88t-88 211q0 54 24.5 115t58 110.5t78.5 99t77 79t61 52.5q29 -24 59 -51.5t74 -75.5t77 -94.5t59 -105.5t29 -112q-35 45 -98 45
q-143 0 -143 -224t143 -224q86 0 118 79q-9 -26 0 -52q10 -27 40 -27h120q17 0 29.5 12.5t12.5 29.5q0 18 -11.5 31.5t-28.5 13.5zM644.5 2q-7.5 0 -13 1t-15 8t-15 20.5t-10 41.5t-4.5 67.5t4.5 67.5t10 41.5t15 21t15 8t13 0.5t12.5 -0.5t14.5 -8t15.5 -21t10.5 -41.5
t4.5 -67.5t-4.5 -67.5t-10.5 -41.5t-15.5 -20.5t-14.5 -8t-12.5 -1zM826 58q-43 -23 -58 -54q12 37 17 66q10 -6 21 -6q18 0 30.5 12.5t12.5 30.5q0 10 13 10q15 0 15 -10q0 -7 -2 -11.5t-14 -14.5t-35 -23z" />
    <glyph glyph-name="xietang" unicode="&#xe652;" 
d="M638 757q-13 13 -30.5 12t-29.5 -14t-11.5 -30.5t13.5 -29.5q231 -224 231 -396q0 -124 -88 -211.5t-211 -87.5t-211 87.5t-88 211.5q0 65 33.5 138t79.5 130t95.5 106.5t80.5 75t36 28.5q14 11 16.5 28t-8.5 31q-11 15 -28 17.5t-32 -8.5q-7 -6 -24 -19.5t-52.5 -45.5
t-70.5 -68t-74 -86t-68.5 -100.5t-49 -110.5t-19.5 -116q0 -104 51.5 -192.5t140 -140t192.5 -51.5t192.5 51.5t140 140t51.5 192.5q0 210 -258 458zM324 450q-16 6 -32.5 -1.5t-22.5 -23.5q-59 -160 0 -261q27 -47 81 -91q11 -9 25 -9q21 0 35 17q11 15 8.5 31.5
t-15.5 28.5q-44 36 -60 68q-36 66 7 190q6 15 -1 30t-25 21z" />
    <glyph glyph-name="jiebang" unicode="&#xe653;" 
d="M928 546q53 53 53 128t-53 128t-128 53t-128 -53l-205 -209q-13 -13 -13 -30.5t13 -29.5t31 -12t29 12l205 209q27 28 65.5 28t66.5 -27.5t28 -66t-28 -66.5l-205 -209q-13 -13 -13 -30.5t13 -29.5t30 -12t30 12zM556.5 234.5q-12.5 12.5 -29.5 12.5t-30 -12l-207 -207
q-27 -27 -66 -27t-68 27q-27 27 -27 66t27 68l207 205q12 13 12 30t-12.5 29.5t-29.5 12.5t-30 -12l-207 -207q-22 -22 -37.5 -59t-15.5 -68t15.5 -68t37.5 -59q53 -53 128 -53t128 53l207 205q11 14 10.5 32.5t-13 31zM380 702q3 -14 14.5 -23t25.5 -9q7 0 11 2q17 5 26 20
t4 31l-26 98q-5 18 -20 26.5t-31 3.5q-17 -5 -26 -20t-4 -31zM241 593q13 -13 30 -13t30 13t13 30t-13 30l-73 72q-13 13 -30 13t-29.5 -12.5t-12.5 -30t13 -29.5zM75 457l98 -26q2 0 5 -1t5 -1q15 0 26.5 9t14.5 23q5 17 -3.5 32.5t-26.5 20.5l-98 26q-18 5 -33.5 -4
t-19.5 -26q-4 -20 5 -35t27 -18zM644 68q-4 18 -19.5 26.5t-31.5 3.5q-17 -5 -26 -20t-4 -31l26 -98q3 -14 14.5 -23t25.5 -9q7 0 11 2q17 5 26 20t4 31zM783 177q-13 13 -30 13t-30 -13t-13 -30t13 -30l73 -72q13 -13 30 -13t29.5 13t12.5 30t-13 30zM949 314l-98 25
q-17 5 -32.5 -3.5t-20.5 -26t3.5 -33t26.5 -20.5l98 -26q2 0 5 -1t6 -1q14 0 25.5 9t14.5 23q6 18 -2 33.5t-26 20.5z" />
    <glyph glyph-name="qiehuan" unicode="&#xe654;" 
d="M939 448h-854q-27 0 -38 26q-10 24 8 47l320 320q13 12 30 12t30 -12.5t13 -29.5t-13 -30l-247 -248h751q17 0 29.5 -12.5t12.5 -30t-12.5 -30t-29.5 -12.5zM619 -85q-17 0 -30 12.5t-13 29.5t13 30l247 248h-751q-17 0 -29.5 12.5t-12.5 30t12.5 30t29.5 12.5h854
q27 0 38 -26q10 -24 -8 -47l-320 -320q-13 -12 -30 -12z" />
    <glyph glyph-name="cha" unicode="&#xe656;" 
d="M512 821q-95 0 -182 -37t-150 -100t-100 -150t-37 -182t37 -182t100 -150t150 -100t182 -37t182 37t150 100t100 150t37 182q0 96 -37 183t-100 149.5t-150 99.5t-182 37zM512 -32q-104 0 -192.5 51.5t-140 140t-51.5 192.5t51.5 192.5t140 140t192.5 51.5
q158 0 271 -113t113 -271q0 -104 -51.5 -192.5t-140 -140t-192.5 -51.5zM691 531q-13 13 -30 13t-30 -13l-117 -117l-117 117q-13 13 -30 13t-30 -13t-13 -30t13 -30l117 -117l-117 -117q-13 -13 -13 -30t13 -30t30 -13t30 13l117 117l117 -117q13 -13 30 -13t30 13t13 30
t-13 30l-117 117l117 117q11 12 11 29.5t-11 30.5z" />
    <glyph glyph-name="shanchu" unicode="&#xe655;" 
d="M776.5 582q-17.5 0 -30 -12.5t-12.5 -29.5v-512q0 -11 -8.5 -18.5t-21.5 -7.5h-388q-13 0 -21.5 8t-8.5 18v512q0 17 -12.5 29.5t-30 12.5t-30 -12.5t-12.5 -29.5v-512q0 -47 33.5 -79t81.5 -32h388q48 0 81.5 33t33.5 78v512q0 17 -12.5 29.5t-30 12.5zM826 698h-186v57
q0 41 -29 69.5t-69 28.5h-62q-41 0 -69.5 -28.5t-28.5 -69.5v-57h-186q-46 0 -78.5 -33t-32.5 -78v-69q0 -17 12.5 -29.5t30.5 -12.5t30.5 12.5t12.5 29.5v69q0 11 7 18t18 7h632q9 0 17 -8t8 -17v-69q0 -17 12.5 -29.5t30.5 -12.5t30.5 12.5t12.5 29.5v69q-2 46 -34.5 78.5
t-78.5 32.5zM465 755q0 5 4 9t9 4h62q5 0 9 -4t4 -9v-57h-90zM467 81v388q0 18 -12.5 30.5t-30 12.5t-30 -12.5t-12.5 -30.5v-388q0 -18 12.5 -30.5t30 -12.5t30 12.5t12.5 30.5zM638 81v388q0 18 -12.5 30.5t-30 12.5t-30 -12.5t-12.5 -30.5v-388q0 -18 12.5 -30.5
t30 -12.5t30 12.5t12.5 30.5z" />
    <glyph glyph-name="tongji" unicode="&#xe657;" 
d="M474 777q-107 -11 -195 -69.5t-138.5 -152.5t-50.5 -203q0 -90 38 -177l346 198v404zM173 100q58 -81 148.5 -128t194.5 -47t194.5 47t149.5 128l-344 199zM612 704q23 13 19.5 37t-27.5 29l-39 7h-6v-43q0 -19 18 -29.5t35 -0.5zM612 531l167 96q16 10 17 28.5t-13 29.5
q-6 6 -15 10q-16 14 -38 3l-154 -90q-17 -10 -17 -30v-17q0 -21 18 -31t35 1zM576 363l6 -5q17 -10 35 0l260 150q13 6 16.5 20t-3.5 27q-1 2 -4.5 7t-4.5 8q-8 12 -22 15.5t-25 -3.5l-258 -149q-17 -10 -17 -30v-10q0 -20 17 -30zM868 256q-17 -10 -17 -30t17 -30l32 -19
l2 -2q0 1 1.5 2t1.5 2q2 6 7 17.5t7 16.5q8 23 -11 38.5t-40 4.5zM939 414q-4 19 -20 27t-34 -2l-168 -98q-18 -9 -18 -29.5t18 -29.5l15 -9q17 -10 34 0l156 90q20 12 17 34q1 2 1 4.5t-0.5 6.5t-0.5 6z" />
  </font>
</defs>
</svg>
